<svg width="292" height="32" fill="none" xmlns="http://www.w3.org/2000/svg"><g fill="#000"><path d="M45.39 31.007c-9.825 0-14.031-4.262-14.067-14.252.033-8.516 5.197-13.808 13.478-13.808 9.912 0 14.142 4.262 14.142 14.251 0 8.389-5.32 13.809-13.553 13.809zm-.517-19.585c-1.962 0-2.975 1.793-3.01 5.329.024 2.488.416 5.783 3.527 5.783 3.01 0 3.01-4.016 3.01-5.336 0-2.479-.365-5.777-3.526-5.777zM118.457 29.461V4.492c0-.446.362-.808.809-.808h14.477c3.83 0 12.739 1.075 12.739 11.043 0 6.67-3.532 10.103-11.117 10.802-.473.044-.958.066-1.441.066-1.206 0-2.439-.136-3.664-.406l-1.813-.399.124 4.65a.81.81 0 0 1-.809.83h-8.496a.809.809 0 0 1-.809-.809zm9.989-11.7h3.238c1.099 0 4.442 0 4.442-3.034 0-2.295-1.856-3.113-3.592-3.113h-4.088v6.146zM18.047 29.45l.254-17.836H9.728l.25 17.836a.809.809 0 0 1-.808.82H.809A.809.809 0 0 1 0 29.46V4.492c0-.446.362-.808.809-.808h26.408c.447 0 .809.362.809.808v24.97a.809.809 0 0 1-.809.808h-8.361a.809.809 0 0 1-.809-.82zM68.308 29.45l.253-17.836h-7.223a.809.809 0 0 1-.809-.809V4.492c0-.446.362-.808.809-.808h23.861c.447 0 .809.362.809.808v6.313a.809.809 0 0 1-.809.809h-7.172l.248 17.836a.809.809 0 0 1-.809.82h-8.35a.809.809 0 0 1-.808-.82zM101.658 31.007c-9.825 0-14.032-4.262-14.067-14.252.033-8.516 5.198-13.808 13.478-13.808 9.482 0 13.702 3.849 14.11 12.87 0 .95.017 1.862.018 2.524 0 .448-.361.81-.809.81h-16.03c.118 1.631 1.225 3.733 5.835 3.733 2.874 0 5.273-.684 6.918-1.342a.804.804 0 0 1 1.102.751v5.193a.798.798 0 0 1-.414.706c-2.193 1.196-5.943 2.815-10.141 2.815zm-.125-19.585c-.717 0-3.077.666-3.36 4.687l7.218-.008c-.242-2.87-1.54-4.68-3.858-4.68zM161.22 3.686c-7.193 0-12.315 3.017-12.315 9.14 0 3.542 2.55 6.848 9.015 6.848 1.649 0 2.809.012 4.479-.235v.823l-4.612.5a8.1 8.1 0 0 0-5.4 2.93l-4.653 5.7a.539.539 0 0 0 .417.88h11.267a.808.808 0 0 0 .683-.377l5.855-9.256h.661v8.824c0 .447.362.809.809.809h8.641a.809.809 0 0 0 .809-.809V4.494a.809.809 0 0 0-.809-.808H161.22zm5.397 12.358h-4.289c-2.071 0-3.121-.853-3.121-2.214 0-1.435.764-2.214 2.272-2.214h5.138v4.428zM240.321 17.956l-4.696-.682v-.407l3.995-.58a8.087 8.087 0 0 0 6.026-4.302l3.907-7.512a.54.54 0 0 0-.479-.787h-9.616a.809.809 0 0 0-.744.49l-5.126 11.992h-.814l.248-11.657a.81.81 0 0 0-.809-.825h-8.457a.809.809 0 0 0-.808.808v24.969c0 .447.362.809.808.809h8.457a.81.81 0 0 0 .809-.826l-.248-11.581h.738l4.64 11.925a.808.808 0 0 0 .759.515l10.54-.065a.539.539 0 0 0 .479-.779l-3.529-7.101a8.086 8.086 0 0 0-6.08-4.404zM208.515 4.506l.259 17.837h-4.93l.252-17.837a.808.808 0 0 0-.808-.82h-6.749a.808.808 0 0 0-.808.82l.259 17.836h-4.93l.252-17.836a.808.808 0 0 0-.808-.82h-8.351a.808.808 0 0 0-.808.808v24.969c0 .447.362.809.808.809h35.521a.81.81 0 0 0 .809-.809V4.494a.81.81 0 0 0-.809-.808h-8.351a.808.808 0 0 0-.808.82zM271.148 3.686a.807.807 0 0 0-.742.488l-7.621 17.653h-.393l.394-17.314a.81.81 0 0 0-.809-.827h-8.354a.809.809 0 0 0-.809.808v24.97c0 .446.362.808.809.808h9.795a.807.807 0 0 0 .742-.489l7.52-17.426h.397l-.301 17.092a.81.81 0 0 0 .809.823h8.358a.809.809 0 0 0 .808-.809V4.494a.809.809 0 0 0-.808-.808h-9.795z"/><g><path d="M287.687.76c2.22 0 2.969.757 2.969 2.997 0 1.8-1.049 2.875-2.807 2.875-2.197 0-2.941-.757-2.949-2.993.007-1.83 1.023-2.878 2.787-2.878zm.004-.76c-2.182 0-3.543 1.394-3.551 3.638.009 2.632 1.117 3.755 3.706 3.755 2.169 0 3.571-1.428 3.571-3.638 0-2.632-1.114-3.755-3.726-3.755z"/><path d="M287.761 5.754c-1.105 0-1.762-.725-1.802-1.989v-.14c.041-1.297.665-1.984 1.802-1.984.623 0 1.178.15 1.535.344l.022.927c-.304-.057-.693-.173-1.164-.173-.917 0-1.016.67-1.016.959 0 .288.099.957 1.016.957.471 0 .86-.116 1.104-.214l.06.915c-.379.234-.936.398-1.557.398z"/></g></g></svg>