<svg width="50" height="50" viewBox="0 0 50 50" fill="none" xmlns="http://www.w3.org/2000/svg">
<g clip-path="url(#clip0_610_737)">
<path d="M25 50C38.8071 50 50 38.8071 50 25C50 11.1929 38.8071 0 25 0C11.1929 0 0 11.1929 0 25C0 38.8071 11.1929 50 25 50Z" fill="black"/>
<path d="M25.9163 34.2186C16.2232 34.2186 10.6976 27.5721 10.4651 16.5116H15.3186C15.479 24.6279 19.0581 28.0674 21.893 28.7767V16.5116H26.4674V23.5116C29.2581 23.2116 32.2093 20.0233 33.2 16.5116H37.7744C37.0116 20.8349 33.8209 24.0256 31.5535 25.3372C33.3269 26.2179 34.8932 27.4649 36.1488 28.996C37.4044 30.527 38.3207 32.3071 38.8372 34.2186H33.8046C32.7232 30.8512 30.0279 28.2465 26.4674 27.893V34.2186H25.9163Z" fill="white"/>
</g>
<defs>
<clipPath id="clip0_610_737">
<rect width="50" height="50" fill="white"/>
</clipPath>
</defs>
</svg>
