<svg width="50" height="50" viewBox="0 0 50 50" fill="none" xmlns="http://www.w3.org/2000/svg">
<g clip-path="url(#clip0_610_741)">
<path d="M25 50C38.8071 50 50 38.8071 50 25C50 11.1929 38.8071 0 25 0C11.1929 0 0 11.1929 0 25C0 38.8071 11.1929 50 25 50Z" fill="black"/>
<path fill-rule="evenodd" clip-rule="evenodd" d="M11.4675 24.5697C18.7372 21.4023 23.5845 19.3139 26.0093 18.3046C32.9349 15.4256 34.3814 14.9256 35.3117 14.907C35.6566 14.9003 35.995 15.0019 36.2791 15.1977C36.4785 15.3696 36.6056 15.6105 36.6349 15.8721C36.685 16.1974 36.699 16.5273 36.6768 16.8558C36.3024 20.8093 34.6768 30.3651 33.8512 34.7814C33.5024 36.6418 32.814 37.2767 32.1465 37.3395C30.7 37.4721 29.5884 36.3814 28.193 35.4628C25.9977 34.0232 24.7582 33.1372 22.6279 31.7232C20.1651 30.0953 21.7628 29.2093 23.1651 27.7535C23.5326 27.3721 29.9093 21.5674 30.0349 21.0418C30.0515 20.9642 30.0496 20.8838 30.0294 20.8071C30.0092 20.7303 29.9712 20.6594 29.9186 20.6C29.8423 20.5523 29.7559 20.523 29.6663 20.5145C29.5766 20.5061 29.4863 20.5186 29.4024 20.5511C29.1837 20.5992 25.6783 22.9163 18.8861 27.5023C17.8907 28.186 16.9892 28.5194 16.1814 28.5023C15.2907 28.4814 13.5791 27.9977 12.3047 27.5721C10.7442 27.0651 9.51397 26.7977 9.61164 25.9442C9.669 25.4977 10.2876 25.0395 11.4675 24.5697Z" fill="white"/>
</g>
<defs>
<clipPath id="clip0_610_741">
<rect width="50" height="50" fill="white"/>
</clipPath>
</defs>
</svg>
