<svg width="50" height="50" viewBox="0 0 50 50" fill="none" xmlns="http://www.w3.org/2000/svg">
<g clip-path="url(#clip0_610_733)">
<path d="M25 50C38.8071 50 50 38.8071 50 25C50 11.1929 38.8071 0 25 0C11.1929 0 0 11.1929 0 25C0 38.8071 11.1929 50 25 50Z" fill="black"/>
<path d="M37.3325 18.6465C37.1851 18.0973 36.8959 17.5966 36.4938 17.1945C36.0917 16.7925 35.591 16.5032 35.0418 16.3558C33.0232 15.814 24.9186 15.814 24.9186 15.814C24.9186 15.814 16.8139 15.814 14.793 16.3558C14.2444 16.5045 13.7444 16.7942 13.3425 17.196C12.9406 17.5979 12.651 18.098 12.5023 18.6465C11.9604 20.6675 11.9604 24.8837 11.9604 24.8837C11.9604 24.8837 11.9604 29.1 12.5023 31.1209C12.651 31.6695 12.9406 32.1695 13.3425 32.5714C13.7444 32.9733 14.2444 33.263 14.793 33.4116C16.8139 33.9535 24.9186 33.9535 24.9186 33.9535C24.9186 33.9535 33.0209 33.9535 35.0418 33.4116C35.591 33.2643 36.0917 32.975 36.4938 32.5729C36.8959 32.1709 37.1851 31.6701 37.3325 31.1209C37.8744 29.1 37.8744 24.8837 37.8744 24.8837C37.8744 24.8837 37.8744 20.6675 37.3325 18.6465ZM22.3255 28.7698V20.9977L29.0697 24.8837L22.3255 28.7698Z" fill="white"/>
</g>
<defs>
<clipPath id="clip0_610_733">
<rect width="50" height="50" fill="white"/>
</clipPath>
</defs>
</svg>
